<?xml version="1.0" standalone="no"?>
<!DOCTYPE svg PUBLIC "-//W3C//DTD SVG 20010904//EN"
 "http://www.w3.org/TR/2001/REC-SVG-20010904/DTD/svg10.dtd">
<svg version="1.0" xmlns="http://www.w3.org/2000/svg"
 width="640.000000pt" height="640.000000pt" viewBox="0 0 640.000000 640.000000"
 preserveAspectRatio="xMidYMid meet">
<metadata>
Created by potrace 1.16, written by Peter Selinger 2001-2019
</metadata>
<g transform="translate(0.000000,640.000000) scale(0.100000,-0.100000)"
fill="#000000" stroke="none">
<path d="M0 3200 l0 -3200 3200 0 3200 0 0 3200 0 3200 -3200 0 -3200 0 0
-3200z m1591 1074 c11 -27 17 -57 14 -65 -3 -9 -1 -26 5 -40 9 -22 10 -21 4 9
-8 45 2 40 31 -18 29 -57 34 -106 10 -96 -17 6 -21 -9 -5 -19 6 -3 10 -18 11
-33 0 -15 4 -36 9 -47 6 -14 8 -6 5 25 -3 25 -1 59 4 75 5 17 10 24 10 16 1
-7 12 -26 26 -42 13 -16 22 -36 19 -44 -4 -9 0 -15 8 -15 8 0 32 -21 54 -46
21 -26 53 -62 71 -80 21 -22 30 -40 27 -51 -5 -14 -4 -15 4 -4 8 11 22 4 69
-36 262 -218 633 -367 951 -380 72 -3 132 -9 132 -12 0 -4 -7 -85 -16 -181
-20 -216 -23 -710 -6 -900 38 -406 116 -672 248 -844 49 -62 45 -63 -26 -7
-110 87 -330 312 -404 413 -17 23 -40 52 -52 65 -11 12 -47 58 -80 100 -32 43
-62 81 -67 84 -4 3 -5 14 -1 25 4 13 3 15 -3 6 -7 -10 -16 -3 -36 27 -15 23
-45 64 -67 93 -41 54 -56 93 -19 49 17 -21 22 -22 30 -10 5 7 8 19 8 24 0 6
-3 4 -6 -2 -7 -20 -23 -15 -23 6 0 10 -6 24 -14 30 -12 10 -16 8 -21 -10 -7
-21 -8 -21 -18 -3 -15 28 -139 218 -146 224 -3 3 -12 16 -19 29 -8 13 -22 38
-31 55 -20 35 -97 163 -111 186 -6 8 -26 44 -45 80 -19 36 -48 88 -64 116 -16
28 -32 61 -35 75 -4 14 2 8 14 -14 12 -22 24 -36 27 -33 3 3 1 11 -5 19 -6 7
-13 25 -16 40 -7 42 -17 53 -31 33 -12 -15 -13 -15 -19 0 -4 9 -4 25 -1 35 3
9 1 20 -4 24 -7 3 -8 0 -5 -9 14 -36 -6 -12 -29 34 -15 29 -20 50 -14 49 33
-4 40 3 17 15 -14 8 -28 12 -32 10 -5 -3 -13 7 -19 23 -5 15 -19 45 -30 66
-10 21 -19 44 -19 52 0 8 -4 15 -9 15 -5 0 -15 17 -22 38 -6 20 -20 55 -29 77
-33 76 -69 170 -85 220 -9 28 -22 64 -30 80 -7 17 -26 73 -40 125 -15 52 -31
104 -36 115 -16 38 -30 106 -24 115 3 6 2 10 -3 10 -9 0 -15 30 -27 120 l-5
35 11 -35 c6 -19 20 -58 30 -86z m-41 -1449 c6 -55 15 -104 19 -108 5 -5 11
19 15 53 4 34 9 60 11 58 2 -2 5 -33 6 -68 2 -72 28 -143 59 -163 23 -13 26
-33 8 -40 -9 -2 3 -25 32 -63 25 -32 48 -60 53 -62 4 -2 7 -21 7 -42 0 -33 6
-43 40 -70 33 -26 40 -38 40 -67 0 -26 7 -40 25 -55 14 -11 25 -27 25 -37 0
-10 14 -32 30 -50 17 -17 37 -49 46 -71 9 -22 20 -40 25 -40 5 0 9 -7 9 -15 0
-8 5 -15 10 -15 6 0 10 -5 10 -10 0 -11 10 -25 41 -58 9 -9 30 -38 48 -64 18
-27 36 -48 41 -48 6 0 10 -7 10 -15 0 -8 -4 -15 -10 -15 -21 0 -8 -21 49 -79
33 -33 66 -73 73 -88 7 -15 26 -34 41 -41 26 -13 37 -32 17 -32 -5 0 -10 -4
-10 -9 0 -12 59 -71 71 -71 5 0 9 -4 9 -9 0 -12 59 -71 71 -71 5 0 9 -11 9
-24 0 -32 20 -46 77 -56 l48 -8 -50 -2 c-48 -3 -49 -3 -15 -10 34 -7 34 -7
-15 -10 l-50 -3 65 -7 c36 -4 -179 -7 -477 -8 l-543 -2 0 728 c0 624 6 980 16
970 1 -2 7 -48 14 -103z"/>
</g>
</svg>
